<?xml version="1.0" encoding="UTF-8" standalone="no"?>
<!-- Created with Inkscape (http://www.inkscape.org/) -->

<svg
   xmlns:dc="http://purl.org/dc/elements/1.1/"
   xmlns:cc="http://creativecommons.org/ns#"
   xmlns:rdf="http://www.w3.org/1999/02/22-rdf-syntax-ns#"
   xmlns:svg="http://www.w3.org/2000/svg"
   xmlns="http://www.w3.org/2000/svg"
   xmlns:sodipodi="http://sodipodi.sourceforge.net/DTD/sodipodi-0.dtd"
   xmlns:inkscape="http://www.inkscape.org/namespaces/inkscape"
   width="162.02798"
   height="189.08533"
   viewBox="0 0 42.869902 50.028826"
   version="1.1"
   id="svg8"
   inkscape:version="0.92.0 r15299"
   sodipodi:docname="storaenso.svg">
  <defs
     id="defs2">
    <clipPath
       id="clipPath26"
       clipPathUnits="userSpaceOnUse">
      <path
         inkscape:connector-curvature="0"
         id="path24"
         d="M 0,0 H 595.276 V 841.89 H 0 Z" />
    </clipPath>
    <clipPath
       id="clipPath46"
       clipPathUnits="userSpaceOnUse">
      <path
         inkscape:connector-curvature="0"
         id="path44"
         d="M 0,0 H 595.276 V 841.89 H 0 Z" />
    </clipPath>
    <clipPath
       id="clipPath68"
       clipPathUnits="userSpaceOnUse">
      <path
         inkscape:connector-curvature="0"
         id="path66"
         d="M 0,0 H 595.276 V 841.89 H 0 Z" />
    </clipPath>
    <clipPath
       id="clipPath872"
       clipPathUnits="userSpaceOnUse">
      <path
         inkscape:connector-curvature="0"
         id="path870"
         d="M 0,0 H 1200.21 V 1403.14 H 0 Z" />
    </clipPath>
  </defs>
  <sodipodi:namedview
     id="base"
     pagecolor="#ffffff"
     bordercolor="#666666"
     borderopacity="1.0"
     inkscape:pageopacity="0.0"
     inkscape:pageshadow="2"
     inkscape:zoom="2.8489674"
     inkscape:cx="80.013998"
     inkscape:cy="93.542665"
     inkscape:document-units="mm"
     inkscape:current-layer="layer1"
     showgrid="false"
     fit-margin-top="0"
     fit-margin-left="0"
     fit-margin-right="0"
     fit-margin-bottom="0"
     units="px"
     inkscape:window-width="1280"
     inkscape:window-height="744"
     inkscape:window-x="-4"
     inkscape:window-y="-4"
     inkscape:window-maximized="1" />
  <metadata
     id="metadata5">
    <rdf:RDF>
      <cc:Work
         rdf:about="">
        <dc:format>image/svg+xml</dc:format>
        <dc:type
           rdf:resource="http://purl.org/dc/dcmitype/StillImage" />
        <dc:title></dc:title>
      </cc:Work>
    </rdf:RDF>
  </metadata>
  <g
     inkscape:label="Layer 1"
     inkscape:groupmode="layer"
     id="layer1"
     transform="translate(-416.85108,-367.10524)">
    <g
       transform="matrix(0.35277777,0,0,-0.35277777,417.11566,416.86948)"
       inkscape:label="ink_ext_XXXXXX"
       id="g862">
      <g
         transform="scale(0.1)"
         id="g864">
        <g
           id="g866">
          <g
             clip-path="url(#clipPath872)"
             id="g868">
            <path
               inkscape:connector-curvature="0"
               id="path874"
               style="fill:#f68b11;fill-opacity:1;fill-rule:nonzero;stroke:none"
               d="m 307.598,1323.79 0.136,3.35 50.379,-2.2 -0.144,-3.36 c -4.024,-97.38 35.554,-223.22 83.164,-305.7 12.082,-20.903 25.879,-40.454 40.937,-59.028 -11.941,26.523 -22.011,53.198 -29.16,79.858 -50.195,187.39 -1.14,343.25 -0.574,345.04 l 1.043,3.21 48.074,-15.18 -1.004,-3.22 c -29.133,-93.01 -23.445,-224.81 1.192,-316.78 6.14,-22.85 14.16,-44.8 23.652,-66.151 -4.57,28.201 -7.285,56.111 -7.285,83.241 0,193.99 87.734,331.86 88.722,333.42 l 1.844,2.85 42.512,-27.09 -1.816,-2.85 c -52.192,-82.32 -80.84,-211.07 -80.84,-306.33 0,-24.18 2.207,-48.05 5.984,-71.64 2.871,28.97 7.512,57.21 14.707,83.89 50.176,187.38 170.613,297.85 171.992,299.1 l 2.481,2.28 34.043,-37.2 -2.481,-2.27 c -71.711,-66.01 -132.695,-182.97 -157.343,-274.94 -6.27,-23.38 -10.293,-46.99 -12.801,-70.781 10.281,27.211 22.078,53.261 35.926,77.261 96.992,167.99 241.914,243.52 243.542,244.4 l 3,1.54 23.282,-44.74 -3.008,-1.57 c -86.309,-45.19 -175.527,-142.38 -223.137,-224.86 -12.078,-20.94 -22.105,-42.7 -30.664,-65.02 16.965,23.61 35.078,45.72 54.68,65.31 137.148,137.17 296.697,172.62 298.517,173.03 l 3.28,0.72 10.9,-49.24 -3.28,-0.74 c -95.089,-21.29 -206.417,-92.09 -273.773,-159.41 -17.082,-17.111 -32.382,-35.529 -46.433,-54.904 22.5,18.437 45.711,35.078 69.715,48.944 168.007,96.97 331.261,89.94 333.101,89.86 l 3.37,-0.15 -2.21,-50.39 -3.34,0.15 c -97.4,4.03 -223.238,-35.52 -305.714,-83.16 -20.911,-12.09 -40.481,-25.899 -59.067,-40.977 26.555,11.992 53.305,22.071 80.024,29.219 187.357,50.218 343.237,1.152 345.017,0.586 l 3.25,-1.016 -15.2,-48.086 -3.22,1.016 c -93.05,29.082 -224.832,23.418 -316.793,-1.211 -23.379,-6.269 -45.839,-14.551 -67.668,-24.297 28.743,4.707 57.18,7.52 84.844,7.52 193.957,0 331.857,-87.754 333.437,-88.75 l 2.82,-1.817 -27.1,-42.5 -2.87,1.778 c -82.28,52.207 -211.041,80.859 -306.287,80.859 -24.207,0 -48.062,-2.207 -71.656,-5.996 28.98,-2.871 57.195,-7.5 83.914,-14.688 C 1063.57,763.785 1174.05,643.355 1175.3,641.988 l 2.28,-2.48 -37.2,-34.063 -2.27,2.481 c -66.02,71.699 -182.973,132.695 -274.965,157.363 -23.379,6.25 -46.973,10.293 -70.743,12.793 27.207,-10.273 53.25,-22.07 77.227,-35.937 C 1037.64,645.172 1113.15,500.25 1114.03,498.609 l 1.54,-2.988 -44.75,-23.281 -1.55,2.988 c -45.19,86.348 -142.375,175.527 -224.836,223.145 -20.95,12.09 -42.715,22.109 -65.039,30.664 23.64,-16.973 45.734,-35.078 65.324,-54.649 C 981.875,537.301 1017.29,377.77 1017.71,375.949 l 0.75,-3.301 -49.23,-10.898 -0.753,3.301 c -21.321,95.101 -92.098,206.429 -159.434,273.734 -17.078,17.09 -35.527,32.422 -54.883,46.465 18.43,-22.52 35.086,-45.723 48.945,-69.707 96.993,-168.027 89.922,-331.273 89.856,-333.145 l -0.148,-3.339 -50.391,2.191 0.117,3.371 c 4.063,97.391 -35.496,223.207 -83.105,305.688 -12.11,20.937 -25.938,40.488 -40.996,59.062 11.992,-26.523 22.058,-53.262 29.207,-80 50.226,-187.359 1.156,-343.242 0.585,-345 l -1.011,-3.242 -48.086,15.191 1.004,3.211 c 29.093,93 23.449,224.801 -1.199,316.793 -6.399,23.887 -14.934,46.836 -24.961,69.141 4.851,-29.258 7.769,-58.164 7.769,-86.27 0,-193.984 -87.742,-331.855 -88.75,-333.414 l -1.805,-2.84 -42.519,27.098 1.797,2.852 c 52.168,82.3 80.84,211.07 80.84,306.304 0,24.16 -2.207,47.989 -5.977,71.602 -2.871,-28.965 -7.512,-57.09 -14.68,-83.75 C 560.461,339.66 440.059,229.211 438.66,227.961 l -2.5,-2.281 -34.043,37.191 2.5,2.258 c 71.711,66.019 132.656,182.992 157.363,274.984 6.243,23.34 10.278,46.934 12.766,70.684 -10.281,-27.149 -22.019,-53.164 -35.859,-77.09 C 441.895,365.719 296.98,290.191 295.32,289.328 l -2.996,-1.578 -23.23,44.762 2.957,1.547 c 86.355,45.211 175.539,142.382 223.144,224.863 12.071,20.937 22.11,42.656 30.657,65 C 508.918,600.328 490.82,578.277 471.27,558.707 334.109,421.559 174.578,386.09 172.754,385.719 l -3.301,-0.739 -10.879,49.235 3.281,0.742 c 95.11,21.309 206.407,92.09 273.758,159.434 17.075,17.05 32.375,35.468 46.391,54.843 C 459.563,630.836 436.379,614.215 412.449,600.367 244.441,503.395 81.1719,510.445 79.3242,510.543 l -3.3945,0.117 2.2226,50.391 3.3516,-0.137 c 97.3911,-4.023 223.2151,35.547 305.6911,83.145 20.91,12.07 40.493,25.898 59.043,40.976 C 419.727,673.063 393.059,663.004 366.379,655.836 179.031,605.641 23.125,654.703 21.3477,655.27 l -3.1954,1.015 15.1875,48.106 3.1758,-1.016 c 93.0354,-29.102 224.8124,-23.457 316.8124,1.211 23.36,6.23 45.813,14.551 67.617,24.277 -28.711,-4.707 -57.066,-7.519 -84.683,-7.519 -193.996,0 -331.85966,87.734 -333.41825,88.75 L 0,811.91 l 27.1094,42.52 2.8515,-1.817 c 82.2971,-52.168 211.0551,-80.82 306.3011,-80.82 24.176,0 47.996,2.187 71.597,5.957 -28.941,2.891 -57.089,7.52 -83.75,14.668 C 136.73,842.633 26.2891,963.063 25.0195,964.43 l -2.2656,2.48 37.1797,34.04 2.3008,-2.458 C 128.23,926.793 245.176,865.797 337.156,841.129 c 23.371,-6.25 46.946,-10.293 70.703,-12.774 -27.129,10.254 -53.113,22.032 -77.097,35.84 C 162.754,961.207 87.2578,1106.11 86.3945,1107.77 l -1.5586,2.99 44.7541,23.26 1.57,-2.99 c 45.188,-86.35 142.356,-175.526 224.836,-223.143 20.93,-12.071 42.664,-22.11 64.988,-30.645 -23.582,16.934 -45.652,35.02 -65.203,54.571 C 218.621,1069 183.191,1228.51 182.766,1230.33 l -0.727,3.3 49.25,10.88 0.703,-3.26 c 21.309,-95.1 92.117,-206.41 159.453,-273.754 17.071,-17.09 35.481,-32.383 54.856,-46.406 -18.41,22.441 -35.012,45.625 -48.86,69.57 -96.98,168.01 -89.929,331.27 -89.843,333.13 v 0" />
            <path
               inkscape:connector-curvature="0"
               id="path876"
               style="fill:#f68b11;fill-opacity:1;fill-rule:nonzero;stroke:none"
               d="m 278.75,1241.91 48.711,3.81 0.391,-4.71 c 7.07,-87.26 56.191,-195.33 107.785,-263.787 10.379,-13.789 21.676,-26.68 33.64,-38.907 -10.879,18.829 -20.488,37.911 -28.293,57.227 -65.769,162.737 -38.906,308.147 -38.562,309.917 l 0.879,4.65 48.047,-8.9 -0.868,-4.67 c -15.746,-86.11 3.739,-203.22 35.86,-282.7 6.277,-15.563 13.594,-30.504 21.687,-44.977 -5.461,20.567 -9.687,41.057 -12.16,61.287 -21.414,174.22 42.168,307.72 42.942,309.34 l 2.05,4.28 44.114,-21.06 -2.035,-4.28 c -37.5,-79.1 -48.993,-197.26 -38.551,-282.34 2.129,-17.17 5.426,-33.98 9.695,-50.547 -0.019,21.797 1.223,43.187 4.109,63.827 24.414,173.85 120.403,286.35 121.567,287.7 l 3.062,3.59 37.168,-31.76 -3.062,-3.59 c -56.699,-66.7 -98.403,-177.87 -110.305,-262.74 -2.433,-17.14 -3.574,-34.23 -3.762,-51.343 5.657,21.013 12.375,41.363 20.532,60.603 68.601,161.6 190.379,245.39 191.882,246.41 l 3.875,2.69 27.7,-40.29 -3.91,-2.68 c -72.04,-49.76 -141.051,-146.34 -174.547,-225.23 -6.758,-15.94 -12.297,-32.17 -16.875,-48.652 10.855,18.852 22.617,36.762 35.464,53.222 108.086,138.34 247.446,187.77 249.125,188.38 l 4.461,1.58 16.321,-46.09 -4.453,-1.58 c -82.473,-29.42 -174.153,-104.83 -226.907,-172.37 -10.644,-13.63 -20.183,-27.888 -28.894,-42.634 15.347,15.41 31.347,29.687 48.047,42.264 140.164,105.63 287.58,117.31 289.36,117.44 l 4.73,0.37 3.84,-48.71 -4.73,-0.39 c -87.267,-7.09 -195.341,-56.19 -263.798,-107.771 -13.777,-10.391 -26.687,-21.699 -38.926,-33.672 18.867,10.899 38.008,20.528 57.356,28.36 162.754,65.763 308.138,38.883 309.908,38.573 l 4.67,-0.88 -8.94,-48.045 -4.63,0.859 c -86.14,15.743 -203.207,-3.73 -282.707,-35.859 -16.028,-6.465 -31.418,-14.023 -46.333,-22.461 21.079,5.664 42.051,10.039 62.727,12.559 174.253,21.406 307.733,-42.168 309.383,-42.95 l 4.26,-2.05 -21.06,-44.121 -4.27,2.05 c -79.13,37.52 -197.258,49.004 -282.356,38.555 -17.168,-2.109 -34.004,-5.449 -50.566,-9.707 21.816,0.02 43.203,-1.191 63.847,-4.102 173.845,-24.433 286.325,-120.371 287.705,-121.562 l 3.62,-3.086 -31.77,-37.129 -3.62,3.047 c -66.7,56.699 -177.849,98.379 -262.739,110.312 -17.121,2.403 -34.243,3.555 -51.321,3.711 21.028,-5.605 41.36,-12.324 60.575,-20.488 161.575,-68.594 245.395,-190.39 246.435,-191.875 l 2.68,-3.906 -40.3,-27.676 -2.68,3.887 c -49.76,72.051 -146.37,141.074 -225.245,174.551 -15.93,6.757 -32.156,12.304 -48.633,16.894 C 800,740.719 817.91,728.98 834.387,716.09 972.715,608.023 1022.18,468.668 1022.78,466.969 l 1.55,-4.434 -46.088,-16.328 -1.594,4.453 c -29.382,82.481 -104.812,174.121 -172.363,226.914 -13.621,10.625 -27.867,20.176 -42.613,28.887 15.391,-15.352 29.656,-31.348 42.246,-48.027 C 909.551,518.219 921.238,370.82 921.379,369.02 l 0.367,-4.711 -48.711,-3.829 -0.39,4.711 C 865.559,452.457 816.438,560.543 764.863,629 c -10.422,13.789 -21.711,26.699 -33.691,38.926 10.906,-18.867 20.558,-37.988 28.371,-57.344 65.738,-162.754 38.914,-308.141 38.555,-309.922 l -0.864,-4.672 -48.023,8.934 0.828,4.648 c 15.774,86.11 -3.723,203.219 -35.828,282.692 -6.684,16.523 -14.516,32.343 -23.203,47.656 5.855,-21.523 10.308,-42.91 12.918,-64.023 C 725.344,401.641 661.738,268.16 660.957,266.5 l -2.039,-4.238 -44.094,21.039 2.024,4.25 c 37.507,79.129 49.004,197.289 38.543,282.347 -2.098,17.168 -5.43,34.004 -9.7,50.528 0.024,-21.758 -1.199,-43.086 -4.109,-63.692 C 617.188,382.891 521.211,270.43 520.039,269.039 l -3.066,-3.598 -37.149,31.758 3.047,3.621 c 56.699,66.692 98.359,177.828 110.313,262.731 2.421,17.09 3.546,34.199 3.711,51.308 C 591.301,593.863 584.602,573.57 576.438,554.371 507.852,392.809 386.035,308.961 384.57,307.961 l -3.918,-2.691 -27.656,40.289 3.879,2.703 c 72.02,49.738 141.086,146.304 174.563,225.23 6.753,15.918 12.285,32.129 16.863,48.574 -10.86,-18.789 -22.547,-36.66 -35.41,-53.105 C 404.836,430.641 265.469,381.211 263.762,380.621 l -4.426,-1.582 -16.328,46.074 4.465,1.582 C 329.91,456.109 421.594,531.539 474.355,599.078 485,612.672 494.504,626.93 503.23,641.656 487.891,626.285 471.973,612.066 455.313,599.508 315.09,493.883 167.703,482.164 165.891,482.027 l -4.692,-0.371 -3.828,48.77 4.692,0.371 c 87.273,7.031 195.359,56.172 263.804,107.773 13.789,10.391 26.692,21.66 38.906,33.633 C 445.93,661.305 426.863,651.715 407.566,643.902 244.797,578.16 99.3867,605.016 97.6289,605.348 l -4.6601,0.879 8.9262,48.046 4.628,-0.859 c 86.153,-15.742 203.243,3.711 282.735,35.82 15.996,6.485 31.406,14.063 46.269,22.461 -20.984,-5.644 -41.941,-9.98 -62.566,-12.519 C 198.723,677.77 65.2266,741.344 63.5938,742.125 l -4.2969,2.051 21.0625,44.101 4.2695,-2.011 c 79.1331,-37.52 197.2731,-49.004 282.3441,-38.575 17.16,2.11 33.996,5.43 50.539,9.707 -21.782,-0.019 -43.11,1.211 -63.723,4.122 C 179.98,785.914 67.4727,881.871 66.1133,883.043 l -3.586,3.086 31.7579,37.148 3.5859,-3.027 C 164.57,863.531 275.715,821.852 360.637,809.898 c 17.097,-2.402 34.218,-3.535 51.277,-3.691 -20.976,5.606 -41.289,12.305 -60.449,20.43 C 189.871,895.23 106.047,1017.05 105.027,1018.53 l -2.691,3.91 40.301,27.65 2.676,-3.86 c 49.753,-72.054 146.335,-141.097 225.222,-174.574 15.93,-6.758 32.16,-12.285 48.637,-16.855 -18.82,10.84 -36.699,22.578 -53.125,35.39 C 227.703,998.277 178.27,1137.61 177.664,1139.33 l -1.578,4.46 46.082,16.3 1.594,-4.47 c 29.414,-82.46 104.832,-174.14 172.383,-226.913 13.601,-10.605 27.832,-20.156 42.578,-28.848 -15.371,15.313 -29.602,31.289 -42.16,47.95 C 290.938,1087.98 279.27,1235.41 279.121,1237.18 l -0.371,4.73 v 0" />
            <path
               inkscape:connector-curvature="0"
               id="path878"
               style="fill:#c4122e;fill-opacity:1;fill-rule:nonzero;stroke:none"
               d="m 420.422,1055.58 c 6.641,-14.02 13.594,-27.34 20.711,-39.7 12.082,-20.903 25.879,-40.454 40.937,-59.028 -11.941,26.523 -22.011,53.198 -29.16,79.858 -28.613,106.94 -24.972,203.6 -16.433,267.25 l 14.871,-2.75 -0.868,-4.67 c -15.746,-86.11 3.739,-203.22 35.86,-282.7 6.277,-15.563 13.594,-30.504 21.687,-44.977 -5.461,20.567 -9.687,41.057 -12.16,61.287 -2.808,22.62 -4.129,44.57 -4.375,65.61 2.856,-16.13 6.289,-31.55 10.149,-45.98 6.14,-22.85 14.16,-44.8 23.652,-66.151 -4.57,28.201 -7.285,56.111 -7.285,83.241 0,110.7 28.562,203.11 53.262,262.36 l 13.703,-6.52 -2.035,-4.28 c -37.5,-79.1 -48.993,-197.26 -38.551,-282.34 2.129,-17.17 5.426,-33.98 9.695,-50.547 -0.019,21.797 1.223,43.187 4.109,63.827 3.032,21.66 7.207,42.36 12.153,62.03 -1.262,-15.41 -1.914,-30.35 -1.914,-44.53 0,-24.18 2.207,-48.05 5.984,-71.64 2.871,28.97 7.512,57.21 14.707,83.89 28.621,106.93 80.149,188.81 119.336,239.65 l 11.531,-9.87 -3.062,-3.59 c -56.699,-66.7 -98.403,-177.87 -110.305,-262.74 -2.433,-17.14 -3.574,-34.23 -3.762,-51.343 5.657,21.013 12.375,41.363 20.532,60.603 8.535,20.12 17.918,39.05 27.781,56.76 -5.234,-14.55 -9.695,-28.81 -13.359,-42.5 -6.27,-23.38 -10.293,-46.99 -12.801,-70.781 10.281,27.211 22.078,53.261 35.926,77.261 55.371,95.84 126.289,161.63 177.304,200.57 l 8.606,-12.5 -3.91,-2.68 c -72.04,-49.76 -141.051,-146.34 -174.547,-225.23 -6.758,-15.94 -12.297,-32.17 -16.875,-48.652 10.855,18.852 22.617,36.762 35.464,53.222 13.481,17.25 27.422,33.07 41.528,47.66 -8.781,-12.72 -16.82,-25.32 -23.891,-37.62 -12.078,-20.94 -22.105,-42.7 -30.664,-65.02 16.965,23.61 35.078,45.72 54.68,65.31 78.262,78.26 163.828,123.42 223.176,147.85 l 5.078,-14.31 -4.453,-1.58 c -82.473,-29.42 -174.153,-104.83 -226.907,-172.37 -10.644,-13.63 -20.183,-27.888 -28.894,-42.634 15.347,15.41 31.347,29.687 48.047,42.264 17.468,13.15 35.027,24.86 52.39,35.24 -11.75,-9.98 -22.734,-20.1 -32.793,-30.1 -17.082,-17.111 -32.382,-35.529 -46.433,-54.904 22.5,18.437 45.711,35.078 69.715,48.944 95.859,55.33 190.207,76.82 253.861,85.02 l 1.19,-15.1 -4.73,-0.39 c -87.267,-7.09 -195.341,-56.19 -263.798,-107.771 -13.777,-10.391 -26.687,-21.699 -38.926,-33.672 18.867,10.899 38.008,20.528 57.356,28.36 20.254,8.183 40.254,14.941 59.754,20.468 -13.985,-6.601 -27.207,-13.515 -39.5,-20.605 -20.911,-12.09 -40.481,-25.899 -59.067,-40.977 26.555,11.992 53.305,22.071 80.024,29.219 106.902,28.652 203.577,24.981 267.217,16.445 l -2.79,-14.902 -4.63,0.859 c -86.14,15.743 -203.207,-3.73 -282.707,-35.859 -16.028,-6.465 -31.418,-14.023 -46.333,-22.461 21.079,5.664 42.051,10.039 62.727,12.559 21.731,2.675 42.793,4.043 63.059,4.336 -15.207,-2.774 -29.786,-6.016 -43.489,-9.688 -23.379,-6.269 -45.839,-14.551 -67.668,-24.297 28.743,4.707 57.18,7.52 84.844,7.52 110.676,0 203.117,-28.574 262.337,-53.281 l -6.5,-13.711 -4.27,2.05 c -79.13,37.52 -197.258,49.004 -282.356,38.555 -17.168,-2.109 -34.004,-5.449 -50.566,-9.707 21.816,0.02 43.203,-1.191 63.847,-4.102 21.66,-3.066 42.371,-7.207 61.993,-12.128 -15.379,1.25 -30.293,1.894 -44.485,1.894 -24.207,0 -48.062,-2.207 -71.656,-5.996 28.98,-2.871 57.195,-7.5 83.914,-14.688 C 983.125,785.348 1065,733.824 1115.82,694.625 l -9.82,-11.504 -3.62,3.047 c -66.7,56.699 -177.849,98.379 -262.739,110.312 -17.121,2.403 -34.243,3.555 -51.321,3.711 21.028,-5.605 41.36,-12.324 60.575,-20.488 20.121,-8.535 39.035,-17.91 56.718,-27.773 -14.508,5.215 -28.777,9.687 -42.468,13.359 -23.379,6.25 -46.973,10.293 -70.743,12.793 27.207,-10.273 53.25,-22.07 77.227,-35.937 95.879,-55.332 161.631,-126.27 200.581,-177.305 l -12.5,-8.594 -2.68,3.887 c -49.76,72.051 -146.37,141.074 -225.245,174.551 -15.93,6.757 -32.156,12.304 -48.633,16.894 18.848,-10.859 36.758,-22.598 53.235,-35.488 17.246,-13.438 33.093,-27.402 47.625,-41.485 -12.696,8.77 -25.301,16.797 -37.578,23.868 -20.95,12.09 -42.715,22.109 -65.039,30.664 23.64,-16.973 45.734,-35.078 65.324,-54.649 78.269,-78.281 123.386,-163.828 147.82,-223.242 l -14.297,-5.039 -1.594,4.453 c -29.382,82.481 -104.812,174.121 -172.363,226.914 -13.621,10.625 -27.867,20.176 -42.613,28.887 15.391,-15.352 29.656,-31.348 42.246,-48.027 13.172,-17.481 24.844,-35.059 35.242,-52.422 -9.988,11.738 -20.097,22.754 -30.117,32.773 -17.078,17.09 -35.527,32.422 -54.883,46.465 18.43,-22.52 35.086,-45.723 48.945,-69.707 55.34,-95.879 76.805,-190.195 85.059,-253.863 l -15.129,-1.2 -0.39,4.711 C 865.559,452.457 816.438,560.543 764.863,629 c -10.422,13.789 -21.711,26.699 -33.691,38.926 10.906,-18.867 20.558,-37.988 28.371,-57.344 8.184,-20.273 14.93,-40.273 20.496,-59.746 -6.621,13.965 -13.535,27.207 -20.605,39.473 -12.11,20.937 -25.938,40.488 -40.996,59.062 11.992,-26.523 22.058,-53.262 29.207,-80 28.644,-106.933 24.984,-203.57 16.449,-267.211 l -14.883,2.762 0.828,4.648 c 15.774,86.11 -3.723,203.219 -35.828,282.692 -6.684,16.523 -14.516,32.343 -23.203,47.656 5.855,-21.523 10.308,-42.91 12.918,-64.023 2.558,-20.899 3.887,-41.231 4.265,-60.762 -2.656,14.375 -5.781,28.183 -9.253,41.191 -6.399,23.887 -14.934,46.836 -24.961,69.141 4.851,-29.258 7.769,-58.164 7.769,-86.27 0,-110.703 -28.601,-203.144 -53.301,-262.386 l -13.621,6.492 2.024,4.25 c 37.507,79.129 49.004,197.289 38.543,282.347 -2.098,17.168 -5.43,34.004 -9.7,50.528 0.024,-21.758 -1.199,-43.086 -4.109,-63.692 -3.035,-21.757 -7.227,-42.558 -12.195,-62.285 1.289,15.469 1.922,30.489 1.922,44.746 0,24.16 -2.207,47.989 -5.977,71.602 -2.871,-28.965 -7.512,-57.09 -14.68,-83.75 C 582.02,420.113 530.488,338.219 491.277,287.398 l -11.453,9.801 3.047,3.621 c 56.699,66.692 98.359,177.828 110.313,262.731 2.421,17.09 3.546,34.199 3.711,51.308 -5.594,-20.996 -12.293,-41.289 -20.457,-60.488 -8.567,-20.215 -18,-39.219 -27.915,-56.973 5.239,14.629 9.739,28.926 13.457,42.715 6.243,23.34 10.278,46.934 12.766,70.684 -10.281,-27.149 -22.019,-53.164 -35.859,-77.09 C 483.523,437.828 412.566,372.07 361.555,333.121 l -8.559,12.438 3.879,2.703 c 72.02,49.738 141.086,146.304 174.563,225.23 6.753,15.918 12.285,32.129 16.863,48.574 -10.86,-18.789 -22.547,-36.66 -35.41,-53.105 -13.504,-17.305 -27.52,-33.223 -41.707,-47.832 8.843,12.793 16.882,25.449 24.011,37.793 12.071,20.937 22.11,42.656 30.657,65 C 508.918,600.328 490.82,578.277 471.27,558.707 392.98,480.426 307.422,435.289 248.059,410.875 l -5.051,14.238 4.465,1.582 c 82.437,29.414 174.121,104.844 226.882,172.383 10.645,13.594 20.149,27.852 28.875,42.578 -15.339,-15.371 -31.257,-29.59 -47.917,-42.148 -17.559,-13.203 -35.235,-24.961 -52.708,-35.41 11.868,10.058 22.922,20.195 33.008,30.293 17.075,17.05 32.375,35.468 46.391,54.843 C 459.563,630.836 436.379,614.215 412.449,600.367 316.555,545.016 222.207,523.57 158.555,515.348 l -1.184,15.078 4.692,0.371 c 87.273,7.031 195.359,56.172 263.804,107.773 13.789,10.391 26.692,21.66 38.906,33.633 -18.843,-10.898 -37.91,-20.488 -57.207,-28.301 -20.386,-8.222 -40.464,-14.98 -60.066,-20.566 14.055,6.641 27.371,13.594 39.695,20.723 20.91,12.07 40.493,25.898 59.043,40.976 C 419.727,673.063 393.059,663.004 366.379,655.836 259.465,627.223 162.754,630.875 99.1602,639.43 l 2.7348,14.843 4.628,-0.859 c 86.153,-15.742 203.243,3.711 282.735,35.82 15.996,6.485 31.406,14.063 46.269,22.461 -20.984,-5.644 -41.941,-9.98 -62.566,-12.519 -21.84,-2.696 -42.988,-4.043 -63.344,-4.336 15.266,2.793 29.926,6.055 43.711,9.746 23.36,6.23 45.813,14.551 67.617,24.277 -28.711,-4.707 -57.066,-7.519 -84.683,-7.519 -110.703,0 -203.149,28.574 -262.3831,53.32 l 6.4805,13.613 4.2695,-2.011 c 79.1331,-37.52 197.2731,-49.004 282.3441,-38.575 17.16,2.11 33.996,5.43 50.539,9.707 -21.782,-0.019 -43.11,1.211 -63.723,4.122 -21.738,3.027 -42.559,7.207 -62.273,12.168 15.476,-1.25 30.464,-1.895 44.746,-1.895 24.176,0 47.996,2.187 71.597,5.957 -28.941,2.891 -57.089,7.52 -83.75,14.668 C 217.195,821.07 135.305,872.594 84.4727,911.813 l 9.8125,11.464 3.5859,-3.027 C 164.57,863.531 275.715,821.852 360.637,809.898 c 17.097,-2.402 34.218,-3.535 51.277,-3.691 -20.976,5.606 -41.289,12.305 -60.449,20.43 -20.235,8.593 -39.246,18.008 -57.039,27.929 14.644,-5.234 28.965,-9.726 42.73,-13.437 23.371,-6.25 46.946,-10.293 70.703,-12.774 -27.129,10.254 -53.113,22.032 -77.097,35.84 -95.879,55.371 -161.621,126.328 -200.574,177.365 l 12.449,8.53 2.676,-3.86 c 49.753,-72.054 146.335,-141.097 225.222,-174.574 15.93,-6.758 32.16,-12.285 48.637,-16.855 -18.82,10.84 -36.699,22.558 -53.125,35.39 -17.309,13.536 -33.254,27.539 -47.863,41.719 12.793,-8.828 25.437,-16.894 37.812,-24.023 20.93,-12.071 42.664,-22.11 64.988,-30.645 -23.582,16.934 -45.652,35.02 -65.203,54.571 -78.301,78.277 -123.418,163.847 -147.843,223.227 l 14.23,5.03 1.594,-4.45 c 29.414,-82.46 104.832,-174.14 172.383,-226.913 13.601,-10.605 27.832,-20.156 42.578,-28.848 -15.371,15.313 -29.602,31.289 -42.16,47.95 -13.211,17.539 -24.954,35.195 -35.403,52.671 10.078,-11.832 20.235,-22.906 30.285,-32.984 17.071,-17.09 35.481,-32.383 54.856,-46.406 -18.41,22.441 -35.012,45.625 -48.86,69.57 -55.363,95.88 -76.816,190.22 -85.031,253.87 l 15.051,1.19 0.391,-4.71 c 7.07,-87.26 56.191,-195.33 107.785,-263.787 10.379,-13.789 21.676,-26.68 33.64,-38.907 -10.879,18.829 -20.488,37.911 -28.293,57.227 -8.242,20.347 -15.015,40.467 -20.562,60.037 v 0" />
              </g>
        </g>
      </g>
    </g>
  </g>
</svg>
